<?xml version="1.0" encoding="UTF-8"?>
<svg width="277px" height="255px" viewBox="0 0 277 255" version="1.1" xmlns="http://www.w3.org/2000/svg" xmlns:xlink="http://www.w3.org/1999/xlink">
    <title>Combined Shape</title>
    <g id="Logo" stroke="none" stroke-width="1" fill="none" fill-rule="evenodd">
        <g id="Artboard" transform="translate(-62.000000, -73.000000)" fill="#AC5628" fill-rule="nonzero">
            <path d="M121.136728,286.472388 L126.341718,290.539267 L120.682439,307.31572 L135.601759,297.774529 L140.806749,301.841408 L130.609066,327.352201 L125.010675,322.977941 L131.980588,307.517933 L117.505806,317.114069 L111.937677,312.763454 L117.787912,296.428594 L104.463069,306.923227 L98.864678,302.548967 L121.136728,286.472388 Z M280.883877,121.779874 L335.982178,230.546004 C336.231564,231.406506 336.620322,232.387826 337.148453,233.489964 C338.081711,235.437548 338.62329,237.119909 338.858789,238.573069 L338.863445,238.602018 L338.874756,238.67429 C338.916662,238.947473 338.947663,239.212467 338.968338,239.469514 L338.972983,239.52945 L338.972983,239.52945 C338.978538,239.604072 338.983163,239.676964 338.986953,239.749207 C338.988571,239.780035 338.990062,239.81131 338.991396,239.842463 L338.997245,240.01603 L338.997245,240.01603 L338.999158,240.116348 L338.999158,240.116348 L338.999155,240.362173 L338.998645,240.394681 C338.99251,240.7439 338.965638,241.076616 338.919877,241.393604 C338.892597,241.582524 338.858665,241.765602 338.818431,241.943273 C338.790343,242.067313 338.759174,242.188748 338.725066,242.307602 L338.71159,242.353906 L338.71159,242.353906 C338.698901,242.39692 338.685717,242.439929 338.672146,242.482595 C338.639193,242.586156 338.604228,242.686981 338.567108,242.785848 C338.551003,242.828748 338.534376,242.871572 338.517345,242.914025 C338.488109,242.986888 338.457816,243.058365 338.426381,243.128777 C338.418162,243.147187 338.409818,243.165629 338.401394,243.183998 L338.31035,243.373698 C337.052819,245.880043 334.302056,246.960466 331.97461,247.421477 C299.499262,241.116328 273.238285,247.536378 252.697115,266.581399 L251.792021,267.432266 C226.801293,291.251289 202.954657,300.069638 170.484121,294.30443 C170.321265,294.275515 170.151128,294.239112 169.97155,294.194618 L169.402336,294.036258 L168.763523,293.825721 L168.042156,293.559383 L167.22528,293.233615 L166.299939,292.84479 L164.072042,291.863466 L158.294723,289.232953 L157.47112,288.881849 L157.254193,288.784646 L156.772997,288.544971 L156.225658,288.243231 L155.608543,287.877377 L154.918021,287.44536 L153.736659,286.668799 L151.870697,285.382694 L149.030022,283.349119 L146.315501,281.361528 C146.002573,281.130831 145.723582,280.871264 145.479488,280.589222 C125.364542,264.181349 112.522013,239.21569 112.522013,211.254348 C112.522013,161.838961 152.632594,121.779874 202.111504,121.779874 C227.579092,121.779874 250.564704,132.392831 266.876172,149.431959 L280.883877,121.779874 Z M109.2015,274.406857 L113.269425,279.561452 L92.5528077,295.898357 L88.4848832,290.743763 L109.2015,274.406857 Z M229.413262,209.9199 L191.001884,285.745665 C210.452362,285.166045 226.507093,277.109878 243.676261,261.027613 L244.726006,260.035677 C246.995466,257.872622 249.328868,255.849192 251.725728,253.96529 L229.413262,209.9199 Z M202.111504,132.005528 C158.287327,132.005528 122.760812,167.486434 122.760812,211.254348 C122.760812,237.21284 135.257641,260.256289 154.570621,274.711309 L156.329331,275.990539 C158.258461,277.353823 160.251205,278.633264 162.302243,279.823547 L168.318626,282.555676 L170.069279,283.325755 L171.507871,283.923914 L172.288311,284.233501 C174.840027,284.686903 177.327223,285.041225 179.757015,285.295602 L229.413358,187.269174 L238.560013,205.327874 L261.934827,159.187946 C247.38816,142.530923 225.980581,132.005528 202.111504,132.005528 Z M97.0459556,253.596982 L106.480094,270.362279 L83.4818861,283.294036 L80.2806816,277.605212 L98.1570175,267.553454 L91.9240841,256.47698 L97.0459556,253.596982 Z M90.0633723,232.144643 L95.8567046,250.487861 L70.6939449,258.429017 L68.7281435,252.204771 L88.2869698,246.03217 L84.4594389,233.913197 L90.0633723,232.144643 Z M280.883705,144.429698 L274.050851,157.91871 L268.79858,168.287776 L268.797013,168.285874 L244.296013,216.650874 L260.200493,248.047212 C279.166484,236.369666 301.63567,232.456591 327.406398,236.267483 L280.883705,144.429698 Z M74.776808,202.236996 C82.1761747,201.788727 88.8180543,207.886934 89.2850802,215.590105 C89.7497826,223.254953 83.89325,230.110338 76.4938834,230.558607 C69.0945167,231.006876 62.4909757,224.906347 62.0262733,217.2415 C61.5592474,209.538328 67.3774413,202.685265 74.776808,202.236996 Z M83.3425836,215.950114 C83.0986148,211.926069 79.364663,208.728894 75.1857461,208.982062 C71.0451678,209.232906 67.7248011,212.857446 67.9687699,216.881491 C68.2127387,220.905536 71.9466905,224.10271 76.0872687,223.851866 C80.2661857,223.598698 83.5865524,219.974159 83.3425836,215.950114 Z M73.2117572,153.842213 L96.6415155,168.180514 L94.8959946,174.549695 L77.2291166,175.802423 L91.7905912,185.880912 L90.0450704,192.250093 L62.5661097,192.68681 L64.4435594,185.836237 L81.4010508,186.300087 L66.9603569,176.652767 L68.8276583,169.839225 L86.1606396,168.932961 L71.3343075,160.692785 L73.2117572,153.842213 Z M99.5014051,119.152264 L101.131331,124.669895 C98.188026,125.438513 95.7982729,126.932873 94.2829976,128.867752 C92.980808,130.530539 93.0331875,132.083094 94.0614794,132.887781 C95.3317225,133.881805 96.5364506,133.215475 99.6167859,130.652441 C104.260965,126.777658 107.935637,124.826002 111.837098,127.879077 C116.010754,131.145158 116.125729,136.354952 112.100779,141.494474 C109.212286,145.182837 105.374475,147.591952 101.141061,148.326205 L101.141061,148.326205 L99.9359278,142.702152 C103.185645,141.978275 105.929162,140.468191 107.917961,137.928662 C109.433236,135.993783 109.428209,134.380763 108.309186,133.505075 C107.069186,132.534717 106.039354,133.289151 102.945883,135.744386 C98.4674373,139.407541 94.6769789,141.756192 90.5033233,138.490111 C86.5111309,135.366034 86.3593439,130.078673 90.0765034,125.332173 C92.7992636,121.855437 95.9281675,119.915533 99.5014051,119.152264 L99.5014051,119.152264 Z M113.800469,102.230821 C118.309276,98.5841946 123.937256,98.8230066 127.29535,102.971934 C130.653444,107.120861 129.7123,112.672639 125.203493,116.319265 L125.203493,116.319265 L120.784264,119.893442 L125.978438,126.310847 L120.872437,130.44047 L104.275239,109.934621 Z M122.040051,107.222306 C120.880422,105.789583 118.85323,105.848728 117.09151,107.273569 L117.09151,107.273569 L113.150036,110.461348 L117.015468,115.237092 L120.956942,112.049312 C122.718662,110.624472 123.199681,108.655029 122.040051,107.222306 Z M140.710627,85.8184439 C145.946925,83.3257027 151.363348,84.8722451 153.658855,89.6905964 C155.3103,93.1570362 154.638325,96.8364922 152.14655,99.553642 L152.14655,99.553642 L161.800419,104.994075 L155.07299,108.19667 L146.286087,103.236566 L143.37318,104.623256 L146.923785,112.076102 L140.993938,114.899007 L129.648515,91.084566 Z M240.540763,88.1534171 C242.622401,83.5322167 247.722524,82.1224053 253.221024,84.5973604 C257.248588,86.4102257 259.880185,88.9842899 261.474843,92.27062 L261.474843,92.27062 L256.503964,95.1702575 C255.054519,92.4966861 253.032231,90.5337396 250.790804,89.5248406 C248.864578,88.6578181 247.368867,89.0793692 246.832687,90.2696783 C246.170348,91.7400603 247.105303,92.7504011 250.330638,95.1285338 C255.203661,98.711497 257.976989,101.812538 255.94266,106.328711 C253.766402,111.159966 248.732842,112.515523 242.779052,109.835635 C238.506332,107.912422 235.249657,104.762249 233.525555,100.828151 L233.525555,100.828151 L238.701245,98.3154536 C240.180389,101.297145 242.302421,103.599739 245.244294,104.923919 C247.485721,105.932818 249.051476,105.542795 249.634966,104.247459 C250.281535,102.812086 249.302752,101.992554 246.179002,99.5759316 C241.551135,96.1033168 238.364504,92.984672 240.540763,88.1534171 Z M164.314679,76.7702098 L171.365733,102.188104 L165.036623,103.942508 L157.985569,78.5246143 L164.314679,76.7702098 Z M207.195142,86.3449324 C208.527264,79.0554128 216.06866,74.1096782 223.738766,75.5102941 C227.743846,76.2416501 231.407445,78.627966 233.541548,81.9058823 L233.541548,81.9058823 L228.052433,85.2358522 C226.971934,83.243169 224.898169,81.771647 222.668927,81.3645715 C218.626063,80.6263158 214.552738,83.4732505 213.807302,87.5523599 C213.054964,91.6692388 215.858286,95.771898 219.90115,96.5101537 C221.412501,96.7861371 223.051364,96.5780162 224.494762,95.9439028 L224.494762,95.9439028 L225.08835,92.6957231 L219.534136,91.6814841 L220.424518,86.8092145 L232.250839,88.9687847 L230.269911,99.8086403 C227.107383,102.158384 222.836391,103.095787 218.831311,102.364431 C211.161205,100.963815 205.86302,93.634452 207.195142,86.3449324 Z M198.805106,73 L200.952533,99.2895656 L194.406375,99.8238767 L181.691091,85.2216571 L182.960168,100.75814 L176.41401,101.292451 L174.266582,75.0028852 L180.81274,74.4685742 L193.528024,89.0707938 L192.258947,73.534311 L198.805106,73 Z M147.555621,92.5960431 C146.762928,90.932152 144.778012,90.5162365 142.732041,91.4902214 L142.732041,91.4902214 L138.154615,93.6693064 L140.796926,99.2156101 L145.374352,97.0365251 C147.420323,96.0625401 148.348314,94.2599342 147.555621,92.5960431 Z" id="Combined-Shape"></path>
        </g>
    </g>
</svg>